<?xml version="1.0" standalone="no"?>
<!DOCTYPE svg PUBLIC "-//W3C//DTD SVG 20010904//EN"
 "http://www.w3.org/TR/2001/REC-SVG-20010904/DTD/svg10.dtd">
<svg version="1.0" xmlns="http://www.w3.org/2000/svg"
 width="194.000000pt" height="194.000000pt" viewBox="0 0 194.000000 194.000000"
 preserveAspectRatio="xMidYMid meet">
<metadata>
Created by potrace 1.11, written by Peter Selinger 2001-2013
</metadata>
<g transform="translate(0.000000,194.000000) scale(0.100000,-0.100000)"
fill="#000000" stroke="none">
<path d="M929 1906 c-2 -2 -24 -6 -49 -9 -183 -23 -366 -118 -496 -259 -99
-107 -177 -259 -209 -405 -5 -28 -11 -33 -35 -33 -44 0 -54 -20 -42 -87 6 -32
10 -107 10 -168 1 -121 11 -141 63 -131 24 5 28 0 44 -42 27 -74 103 -198 156
-257 27 -29 49 -57 49 -62 0 -5 -10 -23 -22 -39 -20 -26 -27 -29 -50 -23 -21
5 -34 2 -50 -11 -22 -19 -23 -20 -6 -50 13 -22 15 -37 8 -49 -26 -49 -15 -136
21 -177 11 -11 19 -27 19 -35 0 -19 36 -38 70 -38 14 -1 41 -1 61 -2 43 -1 86
20 125 60 22 24 31 28 47 20 14 -8 23 -6 38 7 21 19 20 45 -4 71 -15 18 -15
21 4 53 12 19 23 37 25 39 8 9 78 -55 111 -101 25 -35 39 -46 46 -39 6 6 37
11 69 11 32 0 74 6 93 14 21 9 37 11 40 5 4 -5 15 -9 27 -9 18 0 20 4 14 39
l-6 38 48 6 c85 10 286 92 330 134 7 7 17 13 22 13 14 0 155 144 187 191 39
57 94 162 108 209 37 121 46 175 46 270 0 74 -5 133 -16 178 -3 12 -7 32 -10
45 -8 35 -46 127 -78 187 -75 141 -192 256 -348 343 -47 25 -178 72 -234 82
-36 7 -221 16 -226 11z m199 -51 c165 -25 333 -115 452 -241 48 -51 130 -164
130 -179 0 -2 11 -28 24 -57 46 -101 60 -178 60 -323 -1 -164 -40 -295 -130
-432 -43 -65 -144 -168 -207 -211 -41 -29 -147 -82 -157 -80 -3 1 -15 -4 -28
-11 -26 -14 -37 -17 -130 -36 l-62 -13 -38 56 c-20 31 -63 84 -94 118 l-57 61
102 -1 c163 0 288 51 407 168 131 129 188 323 151 512 -34 173 -165 330 -337
402 -172 72 -401 42 -549 -71 -91 -70 -160 -167 -195 -273 -12 -35 -27 -64
-33 -65 -69 -5 -167 -4 -191 1 -27 5 -31 10 -28 35 6 55 59 194 100 263 77
130 210 250 342 309 73 34 104 46 120 49 8 1 47 9 85 16 70 15 182 16 263 3z
m27 -290 c55 -16 155 -70 155 -84 0 -20 -63 -71 -101 -81 -38 -10 -48 -20 -53
-52 -1 -7 -4 -17 -7 -23 -3 -5 -5 -17 -4 -25 1 -8 3 -21 3 -29 2 -18 52 -6 70
16 10 14 12 5 12 -55 0 -57 3 -72 15 -72 8 0 15 5 15 11 0 6 6 9 14 6 9 -4 19
5 27 25 7 17 21 39 32 49 16 15 18 23 10 41 -13 30 -5 49 34 82 21 18 34 23
39 15 3 -6 2 -14 -3 -18 -6 -3 -13 -22 -17 -42 -7 -41 6 -53 58 -54 16 0 31
-5 33 -12 3 -8 -6 -11 -24 -10 -23 2 -28 -2 -29 -23 -2 -41 -3 -43 -20 -29
-21 17 -34 -1 -38 -53 -2 -20 -48 -41 -57 -26 -6 9 -16 9 -41 2 -19 -6 -41 -7
-51 -2 -9 4 -25 12 -34 17 -10 4 -20 16 -21 26 -2 9 0 15 6 11 5 -3 12 3 15
14 6 23 -5 33 -27 24 -10 -4 -15 -16 -14 -33 3 -38 -7 -48 -39 -44 -19 3 -38
-3 -58 -19 -16 -12 -37 -21 -47 -20 -10 2 -25 -4 -34 -12 -18 -19 -40 -21 -50
-5 -4 8 -9 7 -15 -2 -6 -10 -13 -10 -33 -1 -31 14 -45 -1 -23 -26 24 -28 26
-59 6 -91 -23 -39 -36 -39 -97 -1 -61 38 -76 38 -92 0 -7 -16 -24 -41 -38 -55
-14 -14 -22 -28 -19 -31 4 -4 2 -15 -3 -24 -8 -14 -4 -22 15 -34 14 -9 25 -23
25 -30 0 -14 43 -27 93 -28 32 -1 79 21 71 33 -7 12 38 39 70 41 19 2 32 11
39 25 12 27 24 29 55 7 18 -13 29 -14 54 -5 35 12 58 1 58 -30 0 -10 23 -44
51 -76 39 -44 49 -63 44 -80 -5 -21 -4 -22 15 -11 12 8 18 19 14 30 -6 21 21
26 29 6 4 -9 6 -8 6 3 1 9 -17 32 -40 51 -22 20 -41 42 -43 51 -1 8 -7 21 -13
28 -17 22 -12 49 9 49 11 0 16 -4 13 -10 -3 -5 1 -10 9 -10 9 0 16 -8 16 -18
0 -11 20 -36 45 -56 37 -31 44 -42 39 -62 -4 -16 0 -31 11 -44 26 -29 12 -48
-57 -79 -113 -51 -121 -53 -238 -54 -145 0 -255 46 -361 152 -36 36 -76 85
-88 109 l-22 43 23 19 c13 11 18 19 11 20 -6 0 -13 -5 -15 -11 -3 -8 -14 -8
-43 0 -22 6 -81 9 -130 7 -73 -2 -103 -9 -153 -31 -60 -27 -92 -28 -92 -3 -1
67 -10 260 -14 286 -5 42 11 49 74 33 26 -7 62 -14 80 -16 39 -5 42 -8 35 -27
-5 -12 -16 -13 -62 -6 -87 14 -86 15 -80 -112 5 -108 11 -135 26 -126 14 9 76
20 181 32 36 4 74 8 85 9 11 1 25 3 32 4 8 1 11 15 9 44 -2 23 -4 66 -5 95
l-1 52 -57 -2 c-52 -3 -58 -1 -58 17 0 16 11 21 64 30 63 10 64 11 66 43 4 56
63 159 120 214 100 95 195 143 304 155 31 3 57 6 58 7 8 7 126 -7 168 -19z
m-800 -436 c5 -22 3 -34 -6 -40 -16 -9 -28 6 -24 30 2 9 4 22 4 29 2 24 20 11
26 -19z m-99 -29 c7 0 20 -13 28 -29 25 -47 82 -50 106 -6 11 21 39 41 45 33
7 -9 14 -158 8 -159 -74 -6 -176 -17 -201 -20 -29 -5 -33 9 -36 121 -2 65 1
73 21 66 8 -3 21 -6 29 -6z m59 -20 c3 -5 2 -10 -4 -10 -5 0 -13 5 -16 10 -3
6 -2 10 4 10 5 0 13 -4 16 -10z m52 -17 c-9 -9 -20 -14 -24 -10 -3 4 2 14 13
21 25 19 33 10 11 -11z m140 -256 c42 -85 99 -146 209 -222 97 -68 200 -162
251 -230 42 -56 83 -129 83 -148 0 -20 -56 -39 -115 -39 -42 0 -48 4 -117 74
-61 62 -93 84 -194 137 -99 50 -133 74 -186 129 -89 92 -175 231 -192 309 -7
31 -7 31 46 42 76 15 86 16 138 13 46 -4 47 -4 77 -65z m-57 -381 c0 -19 -46
-73 -55 -64 -7 7 36 78 48 78 4 0 7 -6 7 -14z m40 -24 c0 -5 30 -24 68 -42 97
-48 96 -46 70 -89 -12 -20 -22 -37 -22 -38 -1 0 -17 -4 -37 -8 -35 -7 -36 -6
-31 24 8 53 -31 76 -72 42 -19 -16 -18 -16 -34 22 -11 25 -9 32 14 63 25 32
44 44 44 26z m-98 -66 c24 -29 37 -76 27 -103 -14 -39 7 -34 29 6 22 39 46 56
63 45 15 -9 10 -47 -11 -79 -28 -42 -25 -49 9 -24 42 31 86 33 133 7 28 -16
38 -28 36 -43 -4 -29 -30 -25 -46 8 l-14 28 -35 -36 c-20 -20 -45 -40 -57 -45
-25 -9 -47 5 -39 27 4 11 2 14 -8 11 -20 -7 -18 -49 3 -62 13 -8 26 -6 52 7
50 24 45 2 -6 -24 -32 -16 -48 -19 -71 -12 -35 10 -40 25 -21 78 16 49 8 63
-18 30 -43 -56 -90 -56 -108 -1 -6 19 -8 49 -5 67 8 44 15 50 15 13 0 -43 10
-72 27 -78 20 -8 53 11 53 31 0 13 -3 13 -15 3 -33 -27 -62 41 -34 80 8 12 9
9 5 -11 -3 -14 0 -34 8 -44 12 -17 14 -17 28 4 30 42 -10 116 -61 116 -30 0
-42 31 -14 37 23 6 52 -9 75 -36z m292 -44 c6 -10 -33 -72 -45 -72 -14 0 -11
15 9 49 17 31 27 37 36 23z m-69 -161 c-3 -6 -11 -11 -17 -11 -6 0 -6 6 2 15
14 17 26 13 15 -4z m-208 -43 c-2 -25 -7 -33 -22 -33 -29 0 -31 37 -3 51 13 6
24 12 25 13 2 0 2 -14 0 -31z"/>
<path d="M1010 1790 c-9 -6 -10 -10 -3 -10 7 0 10 -7 7 -17 -5 -17 -5 -17 6 0
15 24 9 39 -10 27z"/>
<path d="M932 1771 c7 -11 15 -19 19 -18 3 1 21 -14 38 -33 l31 -35 0 28 c0
16 -4 26 -8 23 -4 -2 -18 9 -31 25 -27 34 -70 42 -49 10z"/>
<path d="M856 1773 c-14 -4 -16 -7 -6 -13 8 -5 14 -24 14 -44 1 -30 5 -36 24
-36 12 0 22 5 22 11 0 5 -4 8 -9 5 -10 -7 -25 60 -16 74 6 10 2 11 -29 3z"/>
<path d="M1076 1765 c-20 -20 -20 -35 0 -63 19 -27 54 -28 76 -3 14 17 15 20
1 25 -22 9 -23 8 -23 -14 0 -28 -28 -25 -42 5 -19 41 28 75 60 43 9 -9 12 -9
12 3 0 21 -64 24 -84 4z"/>
<path d="M740 1740 c-8 -5 -10 -10 -3 -10 18 0 35 -60 22 -76 -14 -17 -14 -17
36 0 25 9 41 21 43 33 3 17 2 17 -8 1 -6 -10 -18 -18 -26 -18 -16 0 -37 47
-30 67 6 15 -12 17 -34 3z"/>
<path d="M1239 1728 c-8 -15 -7 -24 6 -38 12 -14 13 -20 4 -26 -7 -4 -18 1
-26 12 -14 19 -15 19 -11 -1 4 -24 47 -33 59 -13 5 7 2 22 -6 35 -8 12 -15 25
-15 28 0 11 29 5 33 -7 4 -8 6 -7 6 3 1 26 -37 31 -50 7z"/>
<path d="M938 1718 c-4 -23 -2 -28 15 -28 14 0 17 3 10 13 -6 6 -12 19 -15 27
-3 9 -7 4 -10 -12z"/>
<path d="M643 1696 c-13 -6 -23 -14 -23 -19 0 -4 4 -6 10 -2 11 7 43 -52 35
-65 -10 -16 7 -12 44 11 18 11 31 23 28 26 -4 3 -14 -2 -23 -12 -14 -13 -19
-14 -25 -3 -13 20 -11 31 6 24 8 -3 15 -1 15 4 0 14 -18 21 -25 10 -9 -14 -25
-3 -25 17 0 10 6 14 20 10 11 -3 20 -1 20 4 0 12 -29 9 -57 -5z"/>
<path d="M1325 1670 c-16 -16 -36 -30 -44 -30 -14 0 -14 -1 -1 -10 21 -14 30
-12 30 5 0 9 6 12 15 9 10 -4 13 -13 10 -24 -3 -11 0 -20 10 -24 11 -4 15 2
16 22 0 15 2 39 4 55 5 35 -4 34 -40 -3z m25 -10 c0 -5 -4 -10 -10 -10 -5 0
-10 5 -10 10 0 6 5 10 10 10 6 0 10 -4 10 -10z"/>
<path d="M555 1642 l-31 -28 44 -27 c25 -15 46 -26 48 -24 2 2 -3 23 -11 47
-8 23 -12 46 -9 51 11 18 -12 8 -41 -19z m35 -11 c0 -5 3 -17 6 -26 6 -15 4
-15 -15 -4 -24 16 -28 39 -6 39 8 0 15 -4 15 -9z"/>
<path d="M1406 1613 c-9 -25 -14 -48 -12 -50 2 -3 22 7 44 21 22 14 43 22 46
19 3 -4 6 -1 6 5 0 22 -21 23 -39 0 -24 -29 -39 -17 -18 16 15 22 13 36 -4 36
-4 0 -14 -21 -23 -47z"/>
<path d="M482 1544 c6 -16 15 -33 20 -38 14 -18 8 -36 -14 -45 -17 -7 -28 -4
-44 10 -26 24 -29 24 -54 -3 -21 -23 -27 -44 -10 -33 6 4 23 -7 40 -23 l29
-30 18 21 c10 11 12 17 6 13 -7 -4 -21 -3 -30 3 -17 9 -17 10 -1 16 9 4 22 4
28 0 5 -3 24 9 40 27 24 26 27 34 15 36 -9 2 -14 9 -12 15 2 7 -3 18 -12 25
-13 11 -12 11 9 1 14 -7 28 -17 32 -22 4 -7 12 -6 23 3 14 12 12 15 -22 27
-77 29 -75 29 -61 -3z m-52 -90 c0 -17 -22 -14 -28 4 -2 7 3 12 12 12 9 0 16
-7 16 -16z"/>
<path d="M1489 1551 c-19 -9 -41 -15 -48 -13 -10 3 -10 0 1 -17 10 -17 14 -18
16 -6 4 17 27 20 37 6 3 -6 -2 -14 -10 -18 -14 -8 -13 -12 6 -29 12 -10 19
-14 15 -7 -4 7 2 30 14 52 30 59 28 61 -31 32z"/>
<path d="M1536 1469 c-14 -21 -12 -42 7 -66 11 -15 59 -13 54 2 -3 5 -14 9
-26 8 -29 -4 -38 23 -16 47 10 11 22 20 26 20 16 0 38 -31 32 -47 -4 -11 -3
-14 5 -9 17 10 15 31 -6 49 -25 23 -58 21 -76 -4z"/>
<path d="M330 1358 c-24 -50 -23 -45 -6 -51 10 -4 12 0 9 14 -6 23 11 25 51 4
24 -13 31 -13 38 -3 11 18 10 30 -3 23 -11 -7 -69 13 -69 24 0 4 5 12 12 19 9
9 9 12 0 12 -6 0 -21 -19 -32 -42z"/>
<path d="M1652 1391 c4 -18 -41 -43 -64 -37 -16 4 -16 0 3 -35 10 -21 25 -39
31 -39 6 0 3 9 -6 19 -10 11 -15 25 -11 30 9 16 25 13 25 -4 0 -8 7 -15 16
-15 14 0 14 3 3 16 -10 13 -10 17 1 24 8 5 18 6 22 4 13 -8 9 11 -7 32 -9 11
-14 13 -13 5z"/>
<path d="M1675 1330 c-3 -5 -1 -10 4 -10 6 0 11 5 11 10 0 6 -2 10 -4 10 -3 0
-8 -4 -11 -10z"/>
<path d="M966 1334 c-15 -15 -20 -29 -17 -48 1 -4 -4 -14 -10 -22 -9 -11 -8
-14 4 -14 27 0 4 -41 -34 -62 -18 -10 -29 -18 -22 -18 6 0 13 -6 16 -14 4 -9
0 -12 -13 -9 -10 3 -21 0 -24 -6 -6 -10 6 -15 26 -12 4 0 25 -6 47 -14 24 -8
43 -10 46 -4 4 5 3 9 -1 9 -4 0 1 7 12 15 13 10 15 17 8 22 -6 5 -10 15 -9 24
2 9 -1 35 -5 57 -5 32 -4 42 7 46 18 7 11 32 -8 28 -9 -1 -8 3 3 11 10 8 15
17 11 20 -10 11 -20 8 -37 -9z"/>
<path d="M866 1283 c-4 -4 -15 -8 -24 -8 -10 0 -17 -8 -17 -20 -1 -11 -7 -19
-14 -17 -7 1 -11 -5 -9 -15 8 -40 77 -27 97 18 12 26 12 32 0 40 -17 11 -24
11 -33 2z"/>
<path d="M536 1178 c3 -4 9 -8 15 -8 5 0 9 4 9 8 0 5 -7 9 -15 9 -8 0 -12 -4
-9 -9z"/>
<path d="M1200 1170 c0 -5 5 -10 10 -10 6 0 10 5 10 10 0 6 -4 10 -10 10 -5 0
-10 -4 -10 -10z"/>
<path d="M536 1123 c-7 -48 -9 -90 -6 -128 2 -16 6 13 11 65 8 98 5 131 -5 63z"/>
<path d="M541 940 c0 -8 4 -22 9 -30 12 -18 12 -2 0 25 -6 13 -9 15 -9 5z"/>
<path d="M1040 805 c0 -8 5 -15 10 -15 6 0 10 7 10 15 0 8 -4 15 -10 15 -5 0
-10 -7 -10 -15z"/>
<path d="M1025 772 c-16 -11 -17 -52 -1 -52 14 0 26 21 26 46 0 15 -9 18 -25
6z"/>
<path d="M1100 664 c0 -5 12 -17 26 -28 22 -15 28 -16 35 -5 12 20 11 29 -3
29 -7 0 -23 3 -35 6 -13 4 -23 2 -23 -2z"/>
<path d="M360 800 c-25 -25 -26 -54 0 -80 53 -53 131 14 86 75 -20 27 -61 30
-86 5z m24 -15 c-4 -8 -11 -15 -16 -15 -6 0 -5 6 2 15 7 8 14 15 16 15 2 0 1
-7 -2 -15z m31 -25 c3 -5 -1 -10 -9 -10 -9 0 -16 5 -16 10 0 6 4 10 9 10 6 0
13 -4 16 -10z m25 -15 c0 -8 -4 -15 -10 -15 -5 0 -7 7 -4 15 4 8 8 15 10 15 2
0 4 -7 4 -15z"/>
<path d="M562 583 c-7 -3 -19 -18 -28 -35 -14 -26 -14 -32 0 -52 32 -50 109
-30 109 28 0 42 -42 73 -81 59z m8 -27 c0 -2 -7 -9 -15 -16 -13 -11 -14 -10
-9 4 5 14 24 23 24 12z m30 -24 c0 -13 -12 -22 -22 -16 -10 6 -1 24 13 24 5 0
9 -4 9 -8z m30 -16 c0 -2 -7 -9 -15 -16 -13 -11 -14 -10 -9 4 5 14 24 23 24
12z"/>
<path d="M817 382 c-36 -39 -7 -102 45 -102 24 0 58 35 58 60 0 27 -35 60 -63
60 -13 0 -31 -8 -40 -18z m32 -13 c-16 -10 -23 -4 -14 10 3 6 11 8 17 5 6 -4
5 -9 -3 -15z m18 -35 c-9 -9 -28 6 -21 18 4 6 10 6 17 -1 6 -6 8 -13 4 -17z"/>
<path d="M520 160 c-47 -47 2 -56 52 -10 l33 29 -32 1 c-20 0 -41 -8 -53 -20z"/>
</g>
</svg>
